<svg width="14" height="14" viewBox="0 0 14 14" fill="none" xmlns="http://www.w3.org/2000/svg">
<path opacity="0.4" d="M13.3335 11.083L13.3241 11.1265L13.2972 11.1897L13.3009 11.3632C13.2871 11.5929 13.1983 11.814 13.0455 11.9926C12.8861 12.1786 12.6685 12.3053 12.4289 12.3545L12.2828 12.3745L2.04174 13.0381C1.70108 13.0717 1.36188 12.9618 1.10868 12.736C0.897476 12.5476 0.762542 12.2934 0.724408 12.0196L0.0370762 1.79337C0.0250762 1.7588 0.0250762 1.72132 0.0370762 1.68673C0.0464095 1.40485 0.170543 1.13841 0.381609 0.946932C0.592543 0.755452 0.873076 0.654892 1.16014 0.667718C7.24001 0.822398 12.3499 5.19435 13.3335 11.083Z" fill="white"/>
</svg>
