<svg width="25" height="26" viewBox="0 0 25 26" fill="none" xmlns="http://www.w3.org/2000/svg">
<path d="M6.37428 2.62743C5.24218 3.7805 5.24218 5.64636 6.39524 6.79943L8.91102 9.3152C11.28 11.6842 11.28 15.5418 8.91102 17.9108L4.29876 13.2985C3.11425 12.114 2.51675 10.5521 2.51675 9.00073C2.51675 7.44934 3.11425 5.88746 4.29876 4.70295L6.34283 2.65888C6.35331 2.6484 6.36379 2.63791 6.37428 2.62743Z" fill="#5D5FEF" stroke="white" stroke-width="2" stroke-miterlimit="10"/>
<path d="M8.38672 8.78992L6.39506 6.79826C5.242 5.6452 5.23152 3.78981 6.3741 2.62627C7.5062 1.51513 9.30917 1.5361 10.4308 2.65771C10.9968 3.22376 11.2799 3.96801 11.2799 4.70178C11.2799 5.43555 10.9968 6.1798 10.4308 6.74585L9.95908 7.21756" fill="#5D5FEF"/>
<path d="M8.38672 8.78992L6.39506 6.79826C5.242 5.6452 5.23152 3.78981 6.3741 2.62627C7.5062 1.51513 9.30917 1.5361 10.4308 2.65771C10.9968 3.22376 11.2799 3.96801 11.2799 4.70178C11.2799 5.43555 10.9968 6.1798 10.4308 6.74585L9.95908 7.21756" stroke="white" stroke-width="2" stroke-miterlimit="10"/>
<path d="M18.2715 23.2246C19.4036 22.0716 19.4036 20.2057 18.2505 19.0526L15.7348 16.5368C13.3657 14.1678 13.3657 10.3103 15.7348 7.94128L20.347 12.5535C21.5315 13.738 22.129 15.2999 22.129 16.8513C22.129 18.4027 21.5315 19.9646 20.347 21.1491L18.3029 23.1932C18.282 23.2141 18.2715 23.2246 18.2715 23.2246Z" fill="#5D5FEF" stroke="white" stroke-width="2" stroke-miterlimit="10"/>
<path d="M16.2479 17.0713L18.2396 19.0629C19.3926 20.216 19.4031 22.0714 18.2606 23.2349C17.1285 24.3461 15.3255 24.3251 14.2039 23.2035C13.6378 22.6374 13.3548 21.8932 13.3548 21.1594C13.3548 20.4257 13.6378 19.6814 14.2039 19.1154L14.686 18.6332" fill="#5D5FEF"/>
<path d="M16.2479 17.0713L18.2396 19.0629C19.3926 20.216 19.4031 22.0714 18.2606 23.2349C17.1285 24.3461 15.3255 24.3251 14.2039 23.2035C13.6378 22.6374 13.3548 21.8932 13.3548 21.1594C13.3548 20.4257 13.6378 19.6814 14.2039 19.1154L14.686 18.6332" stroke="white" stroke-width="2" stroke-miterlimit="10"/>
</svg>
