<svg width="49" height="49" viewBox="0 0 49 49" fill="none" xmlns="http://www.w3.org/2000/svg">
<rect x="0.5" y="0.5" width="48" height="48" rx="16" fill="white"/>
<path d="M18.5514 14.1968C17.4193 15.3498 17.4193 17.2157 18.5724 18.3688L21.0881 20.8845C23.4572 23.2536 23.4572 27.1111 21.0881 29.4801L16.4759 24.8679C15.2914 23.6833 14.6939 22.1215 14.6939 20.5701C14.6939 19.0187 15.2914 17.4568 16.4759 16.2723L18.52 14.2282C18.5304 14.2177 18.5409 14.2073 18.5514 14.1968Z" fill="#5D5FEF"/>
<path d="M20.564 20.3593L18.5723 18.3677C17.4192 17.2146 17.4088 15.3592 18.5513 14.1957C19.6834 13.0845 21.4864 13.1055 22.608 14.2271C23.1741 14.7932 23.4571 15.5374 23.4571 16.2712C23.4571 17.0049 23.1741 17.7492 22.608 18.3152L22.1363 18.787" fill="#5D5FEF"/>
<path d="M30.4486 34.794C31.5807 33.6409 31.5807 31.775 30.4277 30.622L27.9119 28.1062C25.5429 25.7372 25.5429 21.8796 27.9119 19.5106L32.5241 24.1229C33.7086 25.3074 34.3061 26.8693 34.3061 28.4207C34.3061 29.9721 33.7086 31.5339 32.5241 32.7184L30.4801 34.7625C30.4591 34.7835 30.4486 34.794 30.4486 34.794Z" fill="#5D5FEF"/>
<path d="M28.4251 28.6407L30.4167 30.6324C31.5698 31.7855 31.5803 33.6408 30.4377 34.8044C29.3056 35.9155 27.5026 35.8946 26.381 34.773C25.8149 34.2069 25.5319 33.4627 25.5319 32.7289C25.5319 31.9951 25.8149 31.2509 26.381 30.6848L26.8632 30.2026" fill="#5D5FEF"/>
</svg>
