<svg width="32" height="32" viewBox="0 0 32 32" fill="none" xmlns="http://www.w3.org/2000/svg">
<path d="M25.3333 8.00004H22.6667C22.6667 4.26671 19.7333 1.33337 16 1.33337C12.2667 1.33337 9.33333 4.26671 9.33333 8.00004H6.66667C5.2 8.00004 4 9.20004 4 10.6667V26.6667C4 28.1334 5.2 29.3334 6.66667 29.3334H25.3333C26.8 29.3334 28 28.1334 28 26.6667V10.6667C28 9.20004 26.8 8.00004 25.3333 8.00004ZM16 4.00004C18.2667 4.00004 20 5.73337 20 8.00004H12C12 5.73337 13.7333 4.00004 16 4.00004ZM25.3333 26.6667H6.66667V10.6667H25.3333V26.6667ZM16 16C13.7333 16 12 14.2667 12 12H9.33333C9.33333 15.7334 12.2667 18.6667 16 18.6667C19.7333 18.6667 22.6667 15.7334 22.6667 12H20C20 14.2667 18.2667 16 16 16Z" fill="#737791"/>
</svg>
