<svg width="22" height="22" viewBox="0 0 22 22" fill="none" xmlns="http://www.w3.org/2000/svg">
<path fill-rule="evenodd" clip-rule="evenodd" d="M16.7747 17.2011L21.3371 11.8777C21.555 11.6292 21.6665 11.3154 21.6666 11C21.6667 10.7842 21.6147 10.5676 21.5091 10.3706C21.4621 10.2828 21.4047 10.1994 21.3371 10.1223L16.7747 4.79894C16.2955 4.23982 15.4538 4.17502 14.8947 4.65422C14.3356 5.13342 14.2708 5.97515 14.75 6.53427L17.4345 9.6666L7.10833 9.6666C6.37195 9.6666 5.77499 10.2636 5.77499 10.9999C5.77499 11.7363 6.37195 12.3333 7.10833 12.3333L17.4347 12.3333L14.75 15.4658C14.2708 16.0249 14.3356 16.8666 14.8947 17.3458C15.4538 17.825 16.2955 17.7602 16.7747 17.2011ZM8.33329 2.99992C9.06967 2.99992 9.66663 3.59687 9.66663 4.33325L9.66663 6.33325C9.66663 7.06963 10.2636 7.66658 11 7.66658C11.7363 7.66659 12.3333 7.06963 12.3333 6.33325L12.3333 4.33325C12.3333 2.12411 10.5424 0.333251 8.33329 0.333251L4.33329 0.333251C2.12415 0.333251 0.333292 2.12411 0.333292 4.33325L0.333291 17.6666C0.333291 19.8757 2.12415 21.6666 4.33329 21.6666L8.33329 21.6666C10.5424 21.6666 12.3333 19.8757 12.3333 17.6666L12.3333 15.6666C12.3333 14.9302 11.7363 14.3333 11 14.3333C10.2636 14.3333 9.66663 14.9302 9.66663 15.6666L9.66663 17.6666C9.66663 18.403 9.06967 18.9999 8.33329 18.9999L4.33329 18.9999C3.59691 18.9999 2.99996 18.403 2.99996 17.6666L2.99996 4.33325C2.99996 3.59687 3.59691 2.99992 4.33329 2.99992L8.33329 2.99992Z" fill="#737791"/>
</svg>
