<svg width="14" height="14" viewBox="0 0 14 14" fill="none" xmlns="http://www.w3.org/2000/svg">
<path d="M2.33334 11H5.16001C5.24775 11.0005 5.33472 10.9837 5.41595 10.9505C5.49717 10.9173 5.57105 10.8685 5.63334 10.8067L10.2467 6.18667L12.14 4.33333C12.2025 4.27136 12.2521 4.19762 12.2859 4.11638C12.3198 4.03515 12.3372 3.94801 12.3372 3.86C12.3372 3.77199 12.3198 3.68485 12.2859 3.60362C12.2521 3.52238 12.2025 3.44864 12.14 3.38667L9.31334 0.526667C9.25137 0.464181 9.17763 0.414585 9.0964 0.380739C9.01516 0.346893 8.92802 0.329468 8.84001 0.329468C8.752 0.329468 8.66487 0.346893 8.58363 0.380739C8.50239 0.414585 8.42865 0.464181 8.36668 0.526667L6.48668 2.41333L1.86001 7.03333C1.79822 7.09563 1.74934 7.1695 1.71616 7.25073C1.68299 7.33195 1.66617 7.41893 1.66668 7.50667V10.3333C1.66668 10.5101 1.73691 10.6797 1.86194 10.8047C1.98696 10.9298 2.15653 11 2.33334 11ZM8.84001 1.94L10.7267 3.82667L9.78001 4.77333L7.89334 2.88667L8.84001 1.94ZM3.00001 7.78L6.95334 3.82667L8.84001 5.71333L4.88668 9.66667H3.00001V7.78ZM13 12.3333H1.00001C0.823199 12.3333 0.65363 12.4036 0.528606 12.5286C0.403581 12.6536 0.333344 12.8232 0.333344 13C0.333344 13.1768 0.403581 13.3464 0.528606 13.4714C0.65363 13.5964 0.823199 13.6667 1.00001 13.6667H13C13.1768 13.6667 13.3464 13.5964 13.4714 13.4714C13.5964 13.3464 13.6667 13.1768 13.6667 13C13.6667 12.8232 13.5964 12.6536 13.4714 12.5286C13.3464 12.4036 13.1768 12.3333 13 12.3333Z" fill="#0095FF"/>
</svg>
